PathFileType	4	(X/Y/Z)	Kaydara	
DataRate	CameraRate	NumFrames	NumMarkers	Units	OrigDataRate	OrigDataStartFrame	OrigNumFrames	
120.00	120.00	4	72	mm	120.00	131	261	
Frame#	Time	Hips			RightUpLeg			RightLeg			RightFoot			RightFoot_End			LeftUpLeg			LeftLeg			LeftFoot			LeftFoot_End			Spine			Spine1			Spine2			Spine3			Neck			Head			Head_End			RightShoulder			RightArm			RightForeArm			RightHand			RightHandThumb1			RightHandThumb2			RightHandThumb3			RightHandThumb3_End			RightInHandIndex			RightHandIndex1			RightHandIndex2			RightHandIndex3			RightHandIndex3_End			RightInHandMiddle			RightHandMiddle1			RightHandMiddle2			RightHandMiddle3			RightHandMiddle3_End			RightInHandRing			RightHandRing1			RightHandRing2			RightHandRing3			RightHandRing3_End			RightInHandPinky			RightHandPinky1			RightHandPinky2			RightHandPinky3			RightHandPinky3_End			LeftShoulder			LeftArm			LeftForeArm			LeftHand			LeftHandThumb1			LeftHandThumb2			LeftHandThumb3			LeftHandThumb3_End			LeftInHandIndex			LeftHandIndex1			LeftHandIndex2			LeftHandIndex3			LeftHandIndex3_End			LeftInHandMiddle			LeftHandMiddle1			LeftHandMiddle2			LeftHandMiddle3			LeftHandMiddle3_End			LeftInHandRing			LeftHandRing1			LeftHandRing2			LeftHandRing3			LeftHandRing3_End			LeftInHandPinky			LeftHandPinky1			LeftHandPinky2			LeftHandPinky3			LeftHandPinky3_End			
		X1	Y1	Z1	X2	Y2	Z2	X3	Y3	Z3	X4	Y4	Z4	X5	Y5	Z5	X6	Y6	Z6	X7	Y7	Z7	X8	Y8	Z8	X9	Y9	Z9	X10	Y10	Z10	X11	Y11	Z11	X12	Y12	Z12	X13	Y13	Z13	X14	Y14	Z14	X15	Y15	Z15	X16	Y16	Z16	X17	Y17	Z17	X18	Y18	Z18	X19	Y19	Z19	X20	Y20	Z20	X21	Y21	Z21	X22	Y22	Z22	X23	Y23	Z23	X24	Y24	Z24	X25	Y25	Z25	X26	Y26	Z26	X27	Y27	Z27	X28	Y28	Z28	X29	Y29	Z29	X30	Y30	Z30	X31	Y31	Z31	X32	Y32	Z32	X33	Y33	Z33	X34	Y34	Z34	X35	Y35	Z35	X36	Y36	Z36	X37	Y37	Z37	X38	Y38	Z38	X39	Y39	Z39	X40	Y40	Z40	X41	Y41	Z41	X42	Y42	Z42	X43	Y43	Z43	X44	Y44	Z44	X45	Y45	Z45	X46	Y46	Z46	X47	Y47	Z47	X48	Y48	Z48	X49	Y49	Z49	X50	Y50	Z50	X51	Y51	Z51	X52	Y52	Z52	X53	Y53	Z53	X54	Y54	Z54	X55	Y55	Z55	X56	Y56	Z56	X57	Y57	Z57	X58	Y58	Z58	X59	Y59	Z59	X60	Y60	Z60	X61	Y61	Z61	X62	Y62	Z62	X63	Y63	Z63	X64	Y64	Z64	X65	Y65	Z65	X66	Y66	Z66	X67	Y67	Z67	X68	Y68	Z68	X69	Y69	Z69	X70	Y70	Z70	X71	Y71	Z71	X72	Y72	Z72	

131	1.083	6081.203	893.81699	129.612	6176.2099241043825	906.0453102249514	107.24200848844771	6064.276297128532	505.423841295931	55.78212701965009	6039.115099171404	114.19286024846797	50.97595366560873	5926.105160363195	45.665340310323174	190.63516668179324	5997.068540756352	855.2792462542343	166.6050983604214	5887.559278771919	469.878090781226	288.6604993532126	5759.3342407379805	92.02395825281462	488.1976710629441	5620.094475414284	50.199974582113455	363.3444401843785	6027.39183303774	1014.4970719196941	74.56767073728247	5973.8964113218035	1077.4829124044352	23.611829062987564	5914.63583840686	1137.3776850975205	-32.34285574307856	5853.854385837872	1185.8021200087965	-90.70231381407726	5786.6248394932545	1238.6120435273688	-149.66473460199404	5712.147847468168	1277.8844056815306	-192.30529298692932	5573.666604087264	1355.7928871285294	-207.20242386769277	5834.135496852376	1242.3377919523716	-139.2202729077887	5933.501399013144	1324.3828819601936	-184.9927480629715	6108.24728007908	1152.7593577094337	-320.28668517893385	6352.425491508396	1151.882974981368	-456.2025678747632	6369.14443887529	1185.6806993524656	-472.5391802490651	6377.2050237507865	1199.398206896809	-508.2404915920023	6384.534241061926	1204.8959565809741	-533.8685344183294	6392.112127308559	1206.0101378829872	-555.88851261143	6378.638510919021	1175.4645021648262	-475.37103827765714	6417.227021248063	1191.1814503269102	-513.6204100446038	6434.415923089764	1195.6051538467723	-547.7785272035915	6435.405147785598	1196.86364460359	-569.5618078728784	6429.682933920216	1196.8990807616399	-587.9609191482673	6381.502774417388	1163.5785675495986	-476.48057224437014	6420.692884949328	1172.4811543976755	-514.3858565564667	6439.690087348461	1175.680856437309	-551.6909051673824	6440.9990247976175	1176.4182135588276	-577.9868678455748	6434.794012236846	1176.0773265501475	-598.1262349908111	6382.658687982766	1154.8228406401508	-476.22444756800303	6419.126678161002	1155.325833841261	-509.78571724493673	6435.867666258499	1156.436793385993	-542.2743604949743	6437.2273796547115	1156.256960093686	-567.6247875543387	6431.439122952575	1155.5141823538675	-586.5541811508875	6381.951056409984	1143.9392077758234	-475.32488145163194	6415.368190057627	1137.839390623203	-505.35027535343926	6428.899285167317	1136.1087632947356	-531.1786257337711	6429.951789511152	1134.7100931340021	-549.5787088937158	6424.859283034489	1133.3226508932037	-566.294914128313	5783.982827075097	1198.2627548678884	-121.89833443426056	5706.92689394406	1084.3802081320732	-111.39746026096458	5959.05192063223	1071.2094324861423	-232.86820801812263	6214.307370048475	1116.571009911139	-339.0451086098232	6233.4281533004105	1153.0313307291863	-341.23463247656605	6263.842901684996	1170.982981904536	-323.7942486074418	6287.267788786071	1179.6311508532701	-312.3269114908947	6308.71582999128	1183.544300065242	-303.3472261724321	6243.224415806269	1143.7426955729052	-346.16240908019427	6295.752130465782	1165.868035605628	-349.6106964270845	6332.318928232776	1174.964928236577	-339.7466084916075	6349.1555038464785	1178.5843505868513	-326.0625209006057	6359.1134363470865	1180.206724652819	-309.64242886329845	6247.5002137899	1132.192620322822	-347.3039293249593	6301.046942509681	1147.5273657849605	-351.2882294040729	6341.342412763606	1155.8502395095327	-340.6486663844039	6361.844084017406	1159.4473938502642	-324.19886038489017	6372.831720113152	1160.8484570831647	-306.2612407916293	6249.205634473366	1123.5110715933934	-348.15206347651235	6298.747747969883	1129.8441992992496	-352.8383413132343	6334.187282345776	1135.4347174084269	-343.68400601911986	6354.131558618214	1138.0209139153835	-327.8801175709503	6364.542681945648	1138.919574171532	-311.0442076561526	6249.452553253142	1112.5239243740195	-348.0083867231226	6295.145336780252	1111.7111512103136	-352.65417328813396	6323.803661123549	1113.5642811336008	-345.48820936303156	6338.486375484721	1114.1815688141503	-334.0403568213158	6347.78679457219	1114.247251292009	-319.17226823736786
132	1.092	6081.203	893.81699	129.612	6176.433204473847	905.8959974258074	106.8940714389392	6063.958042863162	505.4244450564256	55.18912955367558	6039.598502159152	113.96055023438439	50.61487626718781	5926.300696135898	45.55799790703055	190.27116996352805	5996.85100459207	855.4397001254795	166.96920910414048	5887.780283745632	470.03844231977797	289.4277665858996	5760.20203106843	91.69758996511871	488.325008425357	5620.956376877327	49.80039430554624	363.4979360423868	6027.382262692264	1014.4885569063163	74.52972641504005	5973.903258503396	1077.4416430154752	23.50934582755209	5914.659787324173	1137.2934227889039	-32.518941116218116	5853.891459426721	1185.6542820837442	-90.96059559295466	5786.688045242473	1238.4094925581269	-150.01659745801987	5712.271864836111	1277.671843575564	-192.78015553126616	5573.840315249062	1355.652066453079	-207.85500053941817	5834.316149926276	1242.0384455129883	-139.76912606727194	5934.08351871224	1323.4678858239993	-186.59936858653387	6106.998230287511	1149.8305052083922	-321.87104059558277	6350.409386101592	1146.6142796746622	-458.8985429816985	6367.040893806548	1180.0074535893189	-475.585304532755	6374.7714198247195	1193.4763783762714	-511.4226837883639	6381.862961201228	1198.817747383427	-537.1170012177488	6389.236015178844	1199.8158751064366	-559.1678632323495	6376.519365097533	1169.7967506054329	-478.3652971325576	6414.83274518065	1185.041119332407	-516.8864362044856	6431.72087291755	1189.2287382086042	-551.1369252781816	6432.490827306369	1190.4144248619518	-572.926640332339	6426.565349948352	1190.4394961571834	-591.2966808458494	6379.3667322566625	1157.97718423808	-479.3833039057315	6418.279381040968	1166.454703544761	-517.5041823320926	6436.946905623775	1169.4071961025754	-554.8969479254874	6437.99059425793	1170.0617115465532	-581.1943970811265	6431.562830921461	1169.7119111491095	-601.2989043065229	6380.518733565786	1149.2794792338484	-479.0564304658974	6416.737604100629	1149.4491827264787	-512.7519882874319	6433.190163835242	1150.3559895977232	-545.3033685200879	6434.293450150337	1150.1022586506465	-570.647944512955	6428.295479756802	1149.3539479003787	-589.5411088324349	6379.806654273441	1138.4837117241357	-478.06075092226456	6412.995834978278	1132.1291094161986	-508.1530004205838	6426.295361500771	1130.254118890485	-534.0095956696774	6427.160533718427	1128.8107938050541	-552.3947724077797	6421.882086443005	1127.4237717141427	-569.0727617459582	5783.899937866147	1198.1847273451672	-121.98655517020298	5706.402522752645	1084.2983866721256	-110.23209012707801	5957.928852155356	1069.104471548589	-233.17814958152184	6213.25484575252	1112.2092976519862	-340.94279548203394	6232.497212465111	1148.2715393799715	-343.5365418600528	6263.220706876869	1165.988961232112	-326.4087297152197	6286.849203470812	1174.4832075398824	-315.1354713178949	6308.457231655153	1178.2759038757777	-306.2973951635098	6242.242699300827	1138.958574037372	-348.4251247253166	6294.927561360148	1160.5624004434062	-352.3077915340781	6331.7162133239935	1169.4073017556311	-342.70162452651994	6348.749557771209	1172.9639291323108	-329.1390495386471	6358.910046377026	1174.5976445301483	-312.79333678184804	6246.487365163733	1127.4569312024073	-349.485239487572	6300.170499300962	1142.3091735352573	-353.8492005896466	6340.703579484323	1150.3652953608046	-343.4788750175511	6361.440496779223	1153.8906349031056	-327.1698121131122	6372.648721801119	1155.306025684745	-309.31072951656563	6248.165595368096	1118.8217381787176	-350.26515857367974	6297.8028832961	1124.7592635204169	-355.2335925954386	6333.4447416176345	1130.1264553653805	-346.30084756672113	6353.613394193686	1132.6482540377926	-330.6257718577544	6364.230724401552	1133.5626950349936	-313.8604151494835	6248.385962051337	1107.912344500648	-350.02726150428225	6294.145742466591	1106.7805673085616	-354.8751776762367	6322.958220108953	1108.4709150581252	-347.8650186357281	6337.8007931816965	1109.0489940782911	-336.50065635261313	6347.281689726704	1109.1331238286257	-321.6890430201286
133	1.1	6081.203	893.81699	129.612	6176.638240694811	905.7334896065048	106.52276865746744	6063.612094597025	505.4133278714694	54.58372190751279	6040.106411117078	113.72743619189195	50.21943781812271	5926.525018330776	45.4443166287209	189.8724224879207	5996.653376998684	855.6135936833235	167.35580186185516	5888.025482624442	470.21045992869773	290.21457376590513	5761.11088996282	91.35882363684816	488.4173189075809	5621.849095149379	49.38780699980897	363.630722547642	6027.369150706175	1014.4798077335357	74.49545096527653	5973.902979131307	1077.3994244330681	23.413524665441642	5914.672698578425	1137.2073650915202	-32.685089073948006	5853.913259455889	1185.5034627800876	-91.20562660177657	5786.732214468905	1238.2027558650834	-150.35208007949763	5712.378215555876	1277.4559757450631	-193.2388929007043	5573.994498811945	1355.5051649315196	-208.4853754440728	5834.474788439253	1241.7259057711935	-140.30984637483212	5934.623434702221	1322.5021033802902	-188.22252909347537	6105.627374631329	1146.819121337567	-323.4291665070323	6348.190319196685	1141.163330771301	-461.5541370550002	6364.734371967245	1174.1360152950401	-478.5985206766229	6372.128023814069	1187.3446097952522	-514.5693133064284	6378.975856961826	1192.5215098277913	-540.3267411390785	6386.137949580635	1193.396920401726	-562.4047236777519	6374.192865617732	1163.9289887932814	-481.3233196803658	6412.218615358403	1178.6769625913728	-520.1146393998755	6428.79601564765	1182.615596472472	-554.452645433737	6429.341840757419	1183.7242474312138	-576.2449125071412	6423.20997459261	1183.7380068723646	-594.5820859991766	6377.020213887416	1152.1770462581098	-482.2460980475356	6415.641520069174	1160.2069472111548	-520.5790220931704	6433.968132729969	1162.8984009454298	-558.0537190443295	6434.7405313716945	1163.4650882358553	-584.3477366113203	6428.0865105817775	1163.1053960208344	-604.4131163009424	6378.1664176831155	1143.5388165388931	-481.84593059780764	6414.122097414105	1143.3561607230502	-515.6704722864629	6430.276077673987	1144.0470501928908	-548.2790533100507	6431.116918838588	1143.714765212614	-573.6127723377423	6424.905847148657	1142.960074212384	-592.4655705695419	6377.448065433344	1132.8336057942365	-480.75102026904386	6410.395264103066	1126.208240346812	-510.9034358401987	6423.454594012667	1124.1800001723548	-536.7830959108342	6424.1278029255345	1122.6888822397011	-555.1493536114957	6418.66027495343	1121.3016785295765	-571.7852545900765	5783.803084146717	1198.1123901660833	-122.05174222759211	5705.877552102186	1084.2500021713327	-109.00716182686625	5956.737914702678	1066.9675906278721	-233.43192053955354	6212.07195224825	1107.7130141161044	-342.8018890300963	6231.436710706322	1143.362038412291	-345.81275295986416	6262.470871705136	1160.8341214295078	-329.00988039578607	6286.303244506381	1169.16670250081	-317.93810365727404	6308.070566007445	1172.8324862261159	-309.2467730261998	6241.127173763293	1134.022640997343	-350.6588425611084	6293.9620503440465	1155.0815796518718	-354.9866935001593	6330.970177310206	1163.6619184819551	-345.6467408326007	6348.201655853146	1167.1517821244763	-332.2114068242345	6358.5677492221475	1168.7961486521717	-315.9452007958322	6245.338166316643	1122.5704036429427	-351.63392148577503	6299.149373410706	1136.9178697068562	-356.3861182793253	6339.917158404778	1144.693730822368	-346.29356682074837	6360.890820631179	1148.1425676229096	-330.13191186485665	6372.322898303056	1149.5715794687883	-312.3568569264578	6246.987558047789	1113.9828080560098	-352.3427713195443	6296.7110208628665	1119.5057242814235	-357.5985286425891	6332.552368768735	1124.6380645393558	-348.8942766678969	6352.946682942185	1127.091075737244	-333.35415687809524	6363.773212695502	1128.0206958738177	-316.6643806389518	6247.17995294045	1103.1536087611255	-352.0071586256646	6292.997482067253	1101.6867502477398	-357.0597465853724	6321.961411307909	1103.2055584592742	-350.2100584691928	6336.964571597737	1103.7414551634831	-338.93325058458333	6346.6284763340855	1103.8436305833154	-324.18232601796166
134	1.108	6081.203	893.81699	129.612	6176.823250209033	905.5571360555148	106.12840688356142	6063.238259208913	505.3894725026361	53.966914757629844	6040.639087867681	113.49393812175373	49.787780686880915	5926.77968990986	45.32391441025419	189.43704809222336	5996.477375568223	855.8015534149022	167.7645735850207	5888.295914508219	470.39462878304215	291.01945744802094	5762.06083420059	91.0085546211779	488.47229367212515	5622.772913802806	48.96233501772063	363.7405789323837	6027.3529205131845	1014.4708810507711	74.46464580696754	5973.896179606753	1077.3564876905982	23.32420403355007	5914.675349684898	1137.1199660768461	-32.84137770143234	5853.920684992571	1185.3503988749155	-91.43731830381017	5786.758370443459	1237.9928412710324	-150.67094352828872	5712.468090286684	1277.2381304902638	-193.6811869370569	5574.130308493185	1355.3534443238582	-209.09310455509234	5834.611771019069	1241.4006913809162	-140.84180210364735	5935.119139657052	1321.4846496904693	-189.85896647977276	6104.134603301852	1143.7294171731482	-324.9530419214677	6345.764626666829	1135.5387127372353	-464.15609266242404	6362.220730383274	1168.0755022493256	-481.5644567080958	6369.271030102798	1181.0124758379727	-517.6649291341176	6375.869391277519	1186.0171377540164	-543.4815880150094	6382.814646081011	1186.7634345022086	-565.5823626296475	6371.654865718642	1157.8704048302136	-484.2307508042453	6409.3802200979335	1172.0990166930478	-523.2891690267115	6425.637184416961	1175.7762599457126	-557.7088549463699	6425.954402234011	1176.8038320028766	-579.4992997359153	6419.613491569464	1176.8054081316286	-597.7994828007298	6374.459193591657	1146.1873102587767	-485.05475308698453	6412.775083268377	1153.7478526491943	-523.5947986335657	6430.749834415595	1156.1649710324452	-561.144594812204	6431.245369834343	1156.6390676016624	-587.4296813044981	6424.3621028154275	1156.26858614866	-607.4513137601903	6375.597802703048	1137.609966478114	-484.5788923599919	6411.276111664345	1137.0565744836042	-518.5260056080261	6427.121627422376	1137.520237759754	-551.185367007059	6427.694466352345	1137.1049538481564	-576.5026771695829	6421.267397275266	1136.3431093959653	-595.3106484821686	6374.871494471191	1126.9979210447552	-483.381850624933	6407.562655744092	1120.086402879954	-513.5868574021181	6420.373402831196	1117.896375462037	-539.4837425795488	6420.850367410447	1116.3544731588543	-557.8266937777964	6415.19106224792	1114.9665471244152	-574.4163603742873	5783.693884193144	1198.0470950048016	-122.09412594453744	5705.355728068362	1084.2390252255186	-107.72462921674604	5955.4804408833115	1064.8037761533665	-233.62533243409652	6210.755563490348	1103.0892378600563	-344.6122283359518	6230.242625449489	1138.3102523052744	-348.05222688617846	6261.588117108248	1155.5259852677234	-331.5863131452832	6285.623786632651	1163.6892370296462	-320.72319211999957	6307.549027002924	1167.2217224871838	-312.18356444178465	6239.87386854403	1128.9424240987407	-352.8524276165788	6292.850309135228	1149.433671580507	-357.6351131434051	6330.074450066041	1157.7370852355941	-348.5692139149327	6347.504743638755	1161.156189931642	-335.2668365786389	6358.078916088107	1162.8103902274509	-319.0854361914412	6244.048763005577	1117.540563852462	-353.7389348829404	6297.978488427828	1131.361536430834	-358.88686728812655	6338.976912035876	1138.8438532313783	-349.0801475162863	6360.188001790483	1142.211466341204	-333.0725580524189	6371.846571934968	1143.6532530994918	-315.38721293275034	6245.667785735136	1109.0017939493289	-354.3739538382209	6295.46743523836	1114.0915869495393	-359.92130796719994	6331.504448132304	1118.977743362042	-351.45205301224945	6352.12493337553	1121.357543894702	-336.05303523126656	6363.163074192432	1122.3016094345367	-319.4440515021736	6245.830950093035	1098.2551812985384	-353.93729933377193	6291.696177137061	1096.4375932856713	-359.1963731839242	6320.808101587835	1097.7762519962916	-352.5115358543403	6335.972030218549	1098.2669647757862	-341.32636468353195	6345.820969728955	1098.3866652085323	-326.6405153192433
